# Blender v2.82 (sub 7) OBJ File: ''
# www.blender.org
o Tank_Mesh
v -0.492464 0.213929 0.307608
v -0.491557 0.089553 0.307998
v -0.491799 0.212459 -0.338749
v -0.490893 0.088084 -0.338359
v -0.362820 0.298287 0.307527
v -0.360698 0.007094 0.308440
v -0.362156 0.296818 -0.338829
v -0.360033 0.005625 -0.337916
v 0.385262 0.334303 0.308244
v 0.387616 0.011377 0.309257
v 0.510115 0.095684 0.309166
v 0.508977 0.251792 0.308677
v 0.385926 0.332834 -0.338112
v 0.388280 0.009908 -0.337100
v 0.510779 0.094214 -0.337190
v 0.509641 0.250323 -0.337680
v 0.531336 0.173945 -0.337410
v 0.530672 0.175414 0.308946
v -0.511323 0.151697 -0.338586
v -0.511988 0.153167 0.307770
v 0.334538 0.379014 0.253670
v 0.335049 0.377885 -0.283962
v -0.031007 0.355427 -0.284410
v -0.031517 0.356557 0.253222
v -0.495723 0.211178 0.301535
v -0.495723 0.113072 0.301535
v -0.497693 0.211178 0.370592
v -0.497693 0.113072 0.370592
v -0.543768 0.231372 0.369278
v -0.543768 0.092878 0.369278
v -0.541798 0.231372 0.300221
v -0.541798 0.092878 0.300221
v -0.396821 0.276969 0.304356
v -0.398790 0.276969 0.373414
v -0.398791 0.047280 0.373414
v -0.396821 0.047280 0.304356
v -0.398790 0.324249 0.373414
v -0.398791 0.000001 0.373414
v -0.396821 0.324249 0.304356
v -0.396821 0.000001 0.304356
v 0.401164 0.312304 0.306069
v 0.401164 0.047279 0.306069
v 0.492105 0.113071 0.303172
v 0.492105 0.246512 0.303172
v 0.398522 0.312304 0.398180
v 0.398521 0.047279 0.398180
v 0.489471 0.113071 0.400774
v 0.489472 0.246512 0.400774
v 0.398522 0.359583 0.398180
v 0.398521 0.000000 0.398180
v 0.535547 0.092877 0.402089
v 0.535547 0.266706 0.402089
v 0.401164 0.359583 0.306069
v 0.401164 0.000000 0.306069
v 0.538175 0.092877 0.301704
v 0.538176 0.266706 0.301704
v 0.552455 0.181486 0.301249
v 0.549827 0.181487 0.402496
v 0.503752 0.181093 0.401182
v 0.506384 0.181093 0.302717
v -0.505261 0.163364 0.301263
v -0.551336 0.163875 0.299949
v -0.553306 0.163875 0.369006
v -0.507231 0.163364 0.370320
v -0.491993 0.211178 -0.395163
v -0.491993 0.113072 -0.395163
v -0.492259 0.211178 -0.326078
v -0.492259 0.113072 -0.326078
v -0.538353 0.231372 -0.326256
v -0.538353 0.092878 -0.326256
v -0.538086 0.231372 -0.395341
v -0.538086 0.092878 -0.395341
v -0.393051 0.276969 -0.394781
v -0.393318 0.276969 -0.325696
v -0.393318 0.047280 -0.325696
v -0.393051 0.047280 -0.394781
v -0.393318 0.324249 -0.325696
v -0.393318 0.000001 -0.325696
v -0.393051 0.324249 -0.394781
v -0.393051 0.000001 -0.394781
v 0.400906 0.312304 -0.411773
v 0.400906 0.047280 -0.411773
v 0.491748 0.113071 -0.416912
v 0.491748 0.246512 -0.416912
v 0.400427 0.312304 -0.323352
v 0.400427 0.047280 -0.323352
v 0.491413 0.113071 -0.323001
v 0.491413 0.246512 -0.323001
v 0.400427 0.359583 -0.323352
v 0.400427 0.000000 -0.323352
v 0.537507 0.092877 -0.322823
v 0.537507 0.266706 -0.322823
v 0.400906 0.359583 -0.411773
v 0.400906 0.000000 -0.411773
v 0.537768 0.092877 -0.419515
v 0.537768 0.266706 -0.419515
v 0.552032 0.181487 -0.420322
v 0.551793 0.181487 -0.322768
v 0.505700 0.181093 -0.322946
v 0.506012 0.181093 -0.417718
v -0.501534 0.163365 -0.395200
v -0.547628 0.163875 -0.395378
v -0.547895 0.163875 -0.326293
v -0.501801 0.163364 -0.326115
vt 0.830828 0.668632
vt 0.764784 0.668632
vt 0.764784 0.296374
vt 0.830828 0.296374
vt 0.878825 0.296374
vt 0.878825 0.668632
vt 0.995355 0.668632
vt 0.929312 0.668632
vt 0.929312 0.296374
vt 0.995355 0.296374
vt 0.081743 0.459855
vt 0.001298 0.459855
vt 0.001298 0.006427
vt 0.081743 0.006428
vt 0.158493 0.006428
vt 0.158493 0.459855
vt 0.388767 0.459855
vt 0.232306 0.459855
vt 0.232306 0.006428
vt 0.388767 0.006428
vt 0.716902 0.326020
vt 0.438982 0.326020
vt 0.438982 0.044414
vt 0.716902 0.044414
vt 0.765557 0.003427
vt 0.999174 0.003427
vt 0.999174 0.295259
vt 0.765557 0.295259
vt 0.397178 0.005602
vt 0.758706 0.005602
vt 0.758706 0.457219
vt 0.397178 0.457219
vt 0.717566 0.680219
vt 0.628684 0.735731
vt 0.230567 0.752734
vt 0.147802 0.695285
vt 0.731555 0.639305
vt 0.134068 0.643274
vt 0.148997 0.589523
vt 0.718517 0.595956
vt 0.630912 0.538451
vt 0.233038 0.533957
vt 0.628341 0.538809
vt 0.717762 0.593448
vt 0.147878 0.583957
vt 0.230077 0.525701
vt 0.134654 0.636100
vt 0.732152 0.634224
vt 0.719538 0.677697
vt 0.150108 0.689702
vt 0.234689 0.744443
vt 0.632500 0.736057
vt 0.408397 0.579129
vt 0.408396 0.798674
vt 0.208086 0.798674
vt 0.208086 0.579129
vt 0.208084 0.449938
vt 0.408396 0.449938
vt 0.408396 0.112269
vt 0.408397 0.314047
vt 0.208086 0.314047
vt 0.208086 0.112269
vt 0.641879 -1.242862
vt 0.637055 0.543807
vt 0.813193 0.523451
vt 0.826975 -1.256660
vt 0.818838 -1.116115
vt 0.641536 -1.116042
vt 0.640636 -0.782642
vt 0.641146 -0.971430
vt 0.820868 -0.962645
vt 0.819796 -0.771489
vt 0.978049 0.523442
vt 0.970356 -1.256875
vt 0.964200 -1.116222
vt 0.967499 -0.962794
vt 0.967903 -0.770656
vt 0.812369 0.545159
vt 0.788783 -1.240309
vt 0.790458 -1.113499
vt 0.792369 -0.968898
vt 0.794888 -0.778158
vt 0.408396 0.568653
vt 0.408396 0.796413
vt 0.208086 0.796413
vt 0.208084 0.568655
vt 0.208086 0.433527
vt 0.408397 0.433527
vt 0.408396 0.110007
vt 0.408397 0.303570
vt 0.208086 0.303570
vt 0.208086 0.110007
vt 0.636680 0.682660
vt 0.637239 0.475768
vt 0.812234 0.485345
vt 0.814078 0.688312
vt 0.815389 0.856653
vt 0.636228 0.850215
vt 0.635171 1.241693
vt 0.635798 1.009536
vt 0.814402 1.017634
vt 0.813452 1.235203
vt 0.990447 0.486420
vt 1.004565 0.688072
vt 1.007811 0.856384
vt 1.007204 1.017370
vt 0.999441 1.234549
vt 0.811515 0.480473
vt 0.814217 0.685052
vt 0.816431 0.852592
vt 0.818535 1.011901
vt 0.821593 1.243415
vt 0.439771 1.535603
vt 0.604555 1.535603
vt 0.604556 0.223975
vt 0.439772 0.223975
vt 0.439771 1.535603
vt 0.604555 1.535603
vt 0.604556 0.223975
vt 0.439772 0.223975
vt 0.408397 0.579129
vt 0.408396 0.798674
vt 0.208086 0.798674
vt 0.208086 0.579129
vt 0.208084 0.449938
vt 0.408396 0.449938
vt 0.408396 0.112269
vt 0.408397 0.314047
vt 0.208086 0.314047
vt 0.208086 0.112269
vt 0.641879 -1.242862
vt 0.637055 0.543807
vt 0.813193 0.523451
vt 0.826975 -1.256660
vt 0.818838 -1.116115
vt 0.641536 -1.116042
vt 0.640636 -0.782642
vt 0.641146 -0.971430
vt 0.820868 -0.962645
vt 0.819796 -0.771489
vt 0.978049 0.523442
vt 0.970356 -1.256875
vt 0.964200 -1.116222
vt 0.967499 -0.962794
vt 0.967903 -0.770656
vt 0.812369 0.545159
vt 0.788783 -1.240309
vt 0.790458 -1.113499
vt 0.792369 -0.968898
vt 0.794888 -0.778158
vt 0.408396 0.568653
vt 0.408396 0.796413
vt 0.208086 0.796413
vt 0.208084 0.568655
vt 0.208086 0.433527
vt 0.408397 0.433527
vt 0.408396 0.110007
vt 0.408397 0.303570
vt 0.208086 0.303570
vt 0.208086 0.110007
vt 0.636680 0.682660
vt 0.637239 0.475768
vt 0.812234 0.485345
vt 0.814078 0.688312
vt 0.815389 0.856653
vt 0.636228 0.850215
vt 0.635171 1.241693
vt 0.635798 1.009536
vt 0.814402 1.017634
vt 0.813452 1.235203
vt 0.990447 0.486420
vt 1.004565 0.688072
vt 1.007811 0.856384
vt 1.007204 1.017370
vt 0.999441 1.234549
vt 0.811515 0.480473
vt 0.814217 0.685052
vt 0.816431 0.852592
vt 0.818535 1.011901
vt 0.821593 1.243415
vt 0.439771 1.535603
vt 0.604555 1.535603
vt 0.604556 0.223975
vt 0.439772 0.223975
vt 0.439771 1.535603
vt 0.604555 1.535603
vt 0.604556 0.223975
vt 0.439772 0.223975
vn -0.5454 0.8382 -0.0034
vn -0.4384 0.8988 -0.0034
vn -0.9521 0.3059 -0.0022
vn -1.0000 0.0002 -0.0010
vn -1.0000 -0.0001 -0.0010
vn -0.5331 -0.8460 0.0019
vn 0.5669 -0.8238 0.0033
vn 0.9683 -0.2497 0.0020
vn 0.9999 0.0122 0.0014
vn 0.9999 0.0121 0.0010
vn 0.5549 0.8319 -0.0013
vn -0.1536 0.9588 -0.2388
vn -0.1543 0.9603 0.2324
vn -0.0577 0.9348 0.3504
vn -0.0568 0.9326 -0.3564
vn 0.0073 -1.0000 0.0031
vn 0.9619 0.2732 0.0007
vn -0.9521 -0.3058 -0.0003
vn 0.6621 0.7494 -0.0016
vn 0.0012 -0.0031 -1.0000
vn -0.0012 0.0031 1.0000
vn -0.0015 0.0031 1.0000
vn -0.0399 0.7721 -0.6343
vn -0.0414 0.7770 0.6281
vn 0.5535 -0.8327 0.0158
vn 0.9803 -0.1957 0.0280
vn 0.5535 0.8327 0.0158
vn -0.0285 -0.0000 0.9996
vn -0.0308 -0.0000 0.9995
vn -0.0287 0.0000 0.9996
vn -0.0309 0.0000 0.9995
vn -0.0288 0.0000 0.9996
vn -0.5391 0.8421 -0.0154
vn -0.9898 0.1400 -0.0282
vn -0.5391 -0.8421 -0.0154
vn 0.0285 0.0000 -0.9996
vn -0.5861 0.8101 -0.0163
vn -0.9783 0.2054 -0.0263
vn -0.5861 -0.8101 -0.0163
vn -0.0289 0.0000 0.9996
vn 0.5610 -0.8276 0.0154
vn 0.9869 -0.1590 0.0257
vn 0.5610 0.8276 0.0154
vn -0.0318 0.0000 -0.9995
vn -0.0442 0.9990 -0.0013
vn 0.0021 0.0000 -1.0000
vn 0.0442 -0.9990 0.0013
vn 0.0000 1.0000 0.0000
vn -0.0000 -1.0000 -0.0000
vn 0.9859 0.1652 0.0257
vn -0.9767 -0.2132 -0.0262
vn -0.9907 -0.1332 -0.0283
vn 0.9821 0.1864 0.0280
vn 0.5537 -0.8327 0.0021
vn 0.9807 -0.1957 0.0038
vn 0.5537 0.8327 0.0021
vn -0.0039 0.0000 1.0000
vn -0.0035 0.0000 1.0000
vn -0.0033 0.0000 1.0000
vn -0.5393 0.8421 -0.0021
vn -0.9901 0.1400 -0.0038
vn -0.5393 -0.8421 -0.0021
vn 0.0039 0.0000 -1.0000
vn -0.5863 0.8101 -0.0026
vn -0.9787 0.2054 -0.0034
vn -0.5863 -0.8101 -0.0026
vn -0.0036 0.0000 1.0000
vn 0.5613 -0.8276 0.0022
vn 0.9873 -0.1590 0.0025
vn 0.5613 0.8276 0.0022
vn -0.0565 -0.0000 -0.9984
vn -0.0445 0.9990 -0.0002
vn -0.0214 0.0000 -0.9998
vn 0.0445 -0.9990 0.0002
vn 0.9863 0.1652 0.0025
vn -0.9770 -0.2132 -0.0034
vn -0.9911 -0.1332 -0.0038
vn 0.9825 0.1864 0.0038
s 1
f 1/1/1 5/2/2 7/3/2 3/4/1
f 3/4/3 19/5/4 20/6/5 1/1/3
f 6/7/6 2/8/6 4/9/6 8/10/6
f 11/11/7 10/12/7 14/13/7 15/14/7
f 15/14/8 17/15/9 18/16/10 11/11/8
f 9/17/11 12/18/11 16/19/11 13/20/11
f 23/21/12 24/22/13 21/23/14 22/24/15
f 6/25/16 8/26/16 14/27/16 10/28/16
f 17/15/9 16/19/17 12/18/17 18/16/10
f 19/5/4 4/9/18 2/8/18 20/6/5
f 22/24/19 21/23/19 9/29/19 13/30/19
f 24/22/13 23/21/12 7/31/2 5/32/2
f 3/33/20 7/34/20 13/35/20 16/36/20
f 19/37/20 3/33/20 16/36/20 17/38/20
f 17/38/20 15/39/20 4/40/20 19/37/20
f 8/41/20 4/40/20 15/39/20 14/42/20
f 5/43/21 1/44/21 12/45/21 9/46/21
f 18/47/21 12/45/21 1/44/21 20/48/21
f 20/48/21 2/49/22 11/50/21 18/47/21
f 10/51/22 11/50/21 2/49/22 6/52/22
f 13/35/23 7/31/23 23/21/23 22/24/23
f 5/43/24 9/29/24 21/23/24 24/22/24
f 25/53/25 33/54/25 34/55/25 27/56/25
f 25/53/26 27/56/26 64/57/26 61/58/26
f 36/59/27 26/60/27 28/61/27 35/62/27
f 27/63/28 34/64/29 37/65/30 29/66/28
f 29/66/28 63/67/28 64/68/28 27/63/28
f 35/69/31 28/70/28 30/71/28 38/72/32
f 29/66/33 37/65/33 39/73/33 31/74/33
f 31/74/34 62/75/34 63/67/34 29/66/34
f 38/72/35 30/71/35 32/76/35 40/77/35
f 31/74/36 39/73/36 33/78/36 25/79/36
f 25/79/36 61/80/36 62/75/36 31/74/36
f 40/77/36 32/76/36 26/81/36 36/82/36
f 43/83/37 42/84/37 46/85/37 47/86/37
f 47/86/38 59/87/38 60/88/38 43/83/38
f 41/89/39 44/90/39 48/91/39 45/92/39
f 47/93/28 46/94/29 50/95/40 51/96/28
f 51/96/28 58/97/28 59/98/28 47/93/28
f 45/99/29 48/100/28 52/101/28 49/102/32
f 51/96/41 50/95/41 54/103/41 55/104/41
f 55/104/42 57/105/42 58/97/42 51/96/42
f 49/102/43 52/101/43 56/106/43 53/107/43
f 55/104/44 54/103/44 42/108/44 43/109/44
f 55/104/44 43/109/44 60/110/44 57/105/44
f 53/107/44 56/106/44 44/111/44 41/112/44
f 39/73/45 37/65/45 49/102/45 53/107/45
f 33/78/46 39/73/46 53/107/46 41/112/46
f 34/113/47 33/114/47 41/115/47 45/116/47
f 37/65/30 34/64/29 45/99/29 49/102/32
f 46/117/48 42/118/48 36/119/48 35/120/48
f 50/95/40 46/94/29 35/69/31 38/72/32
f 38/72/49 40/77/49 54/103/49 50/95/49
f 42/108/46 54/103/46 40/77/46 36/82/46
f 57/105/50 56/106/50 52/101/50 58/97/50
f 58/97/28 52/101/28 48/100/28 59/98/28
f 59/87/51 48/91/51 44/90/51 60/88/51
f 60/110/44 44/111/44 56/106/44 57/105/44
f 61/80/36 26/81/36 32/76/36 62/75/36
f 62/75/52 32/76/52 30/71/52 63/67/52
f 63/67/28 30/71/28 28/70/28 64/68/28
f 64/57/53 28/61/53 26/60/53 61/58/53
f 65/121/54 73/122/54 74/123/54 67/124/54
f 65/121/55 67/124/55 104/125/55 101/126/55
f 76/127/56 66/128/56 68/129/56 75/130/56
f 67/131/57 74/132/58 77/133/59 69/134/57
f 69/134/57 103/135/57 104/136/57 67/131/57
f 75/137/58 68/138/57 70/139/57 78/140/59
f 69/134/60 77/133/60 79/141/60 71/142/60
f 71/142/61 102/143/61 103/135/61 69/134/61
f 78/140/62 70/139/62 72/144/62 80/145/62
f 71/142/63 79/141/63 73/146/63 65/147/63
f 65/147/63 101/148/63 102/143/63 71/142/63
f 80/145/63 72/144/63 66/149/63 76/150/63
f 83/151/64 82/152/64 86/153/64 87/154/64
f 87/154/65 99/155/65 100/156/65 83/151/65
f 81/157/66 84/158/66 88/159/66 85/160/66
f 87/161/57 86/162/58 90/163/67 91/164/57
f 91/164/57 98/165/57 99/166/57 87/161/57
f 85/167/58 88/168/57 92/169/57 89/170/59
f 91/164/68 90/163/68 94/171/68 95/172/68
f 95/172/69 97/173/69 98/165/69 91/164/69
f 89/170/70 92/169/70 96/174/70 93/175/70
f 95/172/71 94/171/71 82/176/71 83/177/71
f 95/172/71 83/177/71 100/178/71 97/173/71
f 93/175/71 96/174/71 84/179/71 81/180/71
f 79/141/72 77/133/72 89/170/72 93/175/72
f 73/146/73 79/141/73 93/175/73 81/180/73
f 74/181/74 73/182/74 81/183/74 85/184/74
f 77/133/59 74/132/58 85/167/58 89/170/59
f 86/185/48 82/186/48 76/187/48 75/188/48
f 90/163/67 86/162/58 75/137/58 78/140/59
f 78/140/49 80/145/49 94/171/49 90/163/49
f 82/176/73 94/171/73 80/145/73 76/150/73
f 97/173/75 96/174/75 92/169/75 98/165/75
f 98/165/57 92/169/57 88/168/57 99/166/57
f 99/155/76 88/159/76 84/158/76 100/156/76
f 100/178/71 84/179/71 96/174/71 97/173/71
f 101/148/63 66/149/63 72/144/63 102/143/63
f 102/143/77 72/144/77 70/139/77 103/135/77
f 103/135/57 70/139/57 68/138/57 104/136/57
f 104/125/78 68/129/78 66/128/78 101/126/78
