# Blender v2.82 (sub 7) OBJ File: ''
# www.blender.org
o Turret_Mesh
v 0.018658 0.070668 0.162987
v -0.000726 0.080969 0.298217
v 0.016853 0.071517 0.297405
v -0.026969 0.070668 0.164194
v -0.023539 0.071517 0.298819
v -0.036251 0.047846 0.174030
v -0.032976 0.047846 0.299071
v -0.026698 0.025025 0.178800
v -0.030012 0.028231 0.300939
v -0.007199 0.018778 0.300336
v -0.003708 0.015572 0.181183
v 0.022100 0.025025 0.297615
v 0.018928 0.025025 0.177593
v 0.031549 0.047846 0.297365
v 0.028275 0.047846 0.172326
v 0.004371 0.080120 0.490593
v -0.018443 0.070667 0.491195
v -0.021812 0.047088 0.499013
v -0.012363 0.024267 0.498764
v 0.004371 0.015572 0.490593
v 0.027184 0.025025 0.489989
v 0.042713 0.047088 0.497308
v 0.033264 0.069909 0.497559
v 0.006057 0.130473 0.559393
v -0.037291 0.108221 0.562728
v -0.069974 0.054416 0.561402
v -0.047705 0.000636 0.560814
v 0.006057 -0.021641 0.559393
v 0.059818 0.000636 0.557972
v 0.082087 0.054416 0.557384
v 0.059818 0.108197 0.557972
v 0.010657 0.123913 0.715005
v -0.049547 0.098967 0.716595
v -0.074981 0.047480 0.717210
v -0.049644 -0.014487 0.720331
v 0.010560 -0.039433 0.718739
v 0.070764 -0.014487 0.717148
v 0.095303 0.047481 0.712710
v 0.070861 0.098967 0.713414
v 0.071943 0.108304 0.797736
v 0.013393 0.133498 0.837251
v -0.047410 0.108304 0.838859
v -0.072595 0.047480 0.839524
v -0.048450 -0.013343 0.821341
v 0.013393 -0.038538 0.837251
v 0.074195 -0.013343 0.835645
v 0.099380 0.047480 0.834979
v 0.013393 0.107400 0.837251
v -0.028962 0.089850 0.838371
v -0.046506 0.047480 0.838834
v -0.030003 0.005111 0.820854
v 0.013393 -0.012439 0.837251
v 0.055748 0.005111 0.836132
v 0.073291 0.047480 0.835669
v 0.053496 0.089850 0.798223
v 0.005038 0.047481 0.521103
v -0.003662 -0.033308 0.008409
v 0.120471 -0.019259 -0.122462
v 0.169276 -0.019259 -0.042862
v 0.038404 -0.019258 -0.166995
v -0.054933 -0.019259 -0.164527
v -0.134533 -0.019259 -0.115722
v -0.179066 -0.019259 -0.033656
v -0.176599 -0.019259 0.059682
v -0.127794 -0.019259 0.139281
v -0.045728 -0.019259 0.183814
v 0.047610 -0.019259 0.181348
v 0.127210 -0.019259 0.132543
v 0.171742 -0.019259 0.050476
v 0.120471 0.009480 -0.122462
v 0.038404 0.009480 -0.166995
v -0.054933 0.009480 -0.164527
v -0.134533 0.009480 -0.115722
v -0.179066 0.009480 -0.033656
v -0.176599 0.009480 0.059682
v -0.127794 0.009480 0.139281
v -0.045728 0.009480 0.183814
v 0.047610 0.009480 0.181348
v 0.127210 0.009480 0.132543
v 0.171742 0.009480 0.050476
v 0.169276 0.009480 -0.042862
v 0.111022 0.063493 -0.112500
v 0.035203 0.063493 -0.153642
v -0.051031 0.063493 -0.151363
v -0.124571 0.063493 -0.106273
v -0.165714 0.063493 -0.030453
v -0.163435 0.063493 0.055778
v -0.118345 0.063493 0.129319
v -0.042526 0.063493 0.170463
v 0.043707 0.063493 0.168184
v 0.117248 0.063493 0.123094
v 0.158391 0.063493 0.047275
v 0.156112 0.063493 -0.038959
v 0.084113 0.109283 -0.084131
v 0.026084 0.109283 -0.115619
v -0.039916 0.109283 -0.113875
v -0.096202 0.109283 -0.079365
v -0.127691 0.109283 -0.021335
v -0.125947 0.109283 0.044665
v -0.091437 0.109283 0.100950
v -0.033407 0.109283 0.132440
v 0.032593 0.109283 0.130696
v 0.088878 0.109283 0.096184
v 0.120368 0.109283 0.038156
v 0.118624 0.109283 -0.027844
v 0.053223 0.165951 -0.051563
v 0.131693 0.135355 -0.031719
v 0.093494 0.135355 -0.094020
v 0.029263 0.135355 -0.128876
v 0.015615 0.165951 -0.071970
v -0.043791 0.135355 -0.126945
v -0.027157 0.165951 -0.070839
v -0.063634 0.165951 -0.048475
v -0.106092 0.135355 -0.088745
v -0.084042 0.165951 -0.010867
v -0.140947 0.135355 -0.024514
v -0.139016 0.135355 0.048540
v -0.082911 0.165951 0.031906
v -0.060546 0.165951 0.068382
v -0.100818 0.135355 0.110841
v -0.036586 0.135355 0.145695
v -0.022939 0.165951 0.088791
v 0.019834 0.165951 0.087660
v 0.036468 0.135355 0.143764
v 0.098769 0.135355 0.105566
v 0.056311 0.165951 0.065294
v 0.133623 0.135355 0.041335
v 0.076718 0.165951 0.027688
v 0.075588 0.165951 -0.015085
v 0.062519 0.186710 -0.011210
v 0.043842 0.186711 -0.041672
v -0.003662 0.197454 0.008409
v 0.012436 0.186710 -0.058714
v -0.023283 0.186710 -0.057771
v -0.053744 0.186711 -0.039094
v -0.070786 0.186710 -0.007689
v -0.069842 0.186710 0.028031
v -0.051165 0.186710 0.058493
v -0.019760 0.186710 0.075535
v 0.015959 0.186710 0.074590
v 0.046421 0.186710 0.055913
v 0.063462 0.186710 0.024507
v 0.043842 0.139879 -0.041673
v 0.063463 0.139879 0.024507
v 0.062519 0.139879 -0.011210
v 0.046421 0.139879 0.055913
v 0.015959 0.139879 0.074590
v -0.051165 0.139879 0.058493
v -0.019760 0.139878 0.075535
v -0.070786 0.139878 -0.007689
v -0.069842 0.139878 0.028031
v -0.053744 0.139879 -0.039094
v -0.023283 0.139879 -0.057771
v 0.012436 0.139879 -0.058714
v -0.004368 0.080120 0.155513
vt 0.291816 0.147319
vt 0.319961 0.332793
vt 0.297543 0.332671
vt 0.350033 0.146657
vt 0.350350 0.332552
vt 0.389269 0.163147
vt 0.387787 0.332643
vt 0.425147 0.171471
vt 0.414141 0.335490
vt 0.445393 0.335911
vt 0.221613 0.171891
vt 0.245745 0.333659
vt 0.213438 0.335911
vt 0.245866 0.172132
vt 0.269442 0.333579
vt 0.268671 0.164083
vt 0.322331 0.591704
vt 0.352152 0.591464
vt 0.386890 0.602032
vt 0.427082 0.602386
vt 0.450466 0.592320
vt 0.245530 0.592560
vt 0.270081 0.602968
vt 0.291946 0.602613
vt 0.325146 0.797825
vt 0.347325 0.799085
vt 0.381048 0.797637
vt 0.414330 0.798054
vt 0.448456 0.798548
vt 0.216502 0.798548
vt 0.247391 0.798831
vt 0.274702 0.798736
vt 0.300065 0.798320
vt 0.325472 0.902257
vt 0.356803 0.901940
vt 0.384449 0.901963
vt 0.416540 0.904980
vt 0.446998 0.905534
vt 0.243840 0.905851
vt 0.271997 0.903194
vt 0.296043 0.902811
vt 0.299478 0.984766
vt 0.326534 0.984206
vt 0.354508 0.983887
vt 0.384108 0.983994
vt 0.415171 0.984465
vt 0.446340 0.985024
vt 0.214386 0.985024
vt 0.244206 0.985344
vt 0.272358 0.985236
vt 0.325809 0.984330
vt 0.353291 0.984108
vt 0.383066 0.984182
vt 0.415096 0.984510
vt 0.447297 0.984900
vt 0.215343 0.984900
vt 0.245444 0.985123
vt 0.273168 0.985048
vt 0.299530 0.984720
vt 0.915820 0.477571
vt 0.929217 0.473152
vt 0.962199 0.573155
vt 0.942615 0.468734
vt 0.956703 0.467997
vt 0.970791 0.467261
vt 0.984576 0.470259
vt 0.998361 0.473257
vt 0.892296 0.493150
vt 0.904058 0.485360
vt 0.884004 0.355661
vt 0.941397 0.260844
vt 0.983411 0.302859
vt 0.884004 0.245466
vt 0.826611 0.260844
vt 0.784596 0.302859
vt 0.769218 0.360252
vt 0.784596 0.417645
vt 0.826611 0.459660
vt 0.884004 0.475038
vt 0.941397 0.459660
vt 0.983411 0.417645
vt 0.998790 0.360252
vt 0.572103 0.877349
vt 0.656652 0.994078
vt 0.532937 0.915986
vt 0.465889 0.794905
vt 0.517206 0.780647
vt 0.514675 0.671170
vt 0.463183 0.659379
vt 0.524484 0.537738
vt 0.564015 0.572928
vt 0.639074 0.460102
vt 0.653201 0.506640
vt 0.782153 0.455392
vt 0.771118 0.502758
vt 0.908417 0.522852
vt 0.869258 0.561881
vt 0.924865 0.658857
vt 0.976541 0.644236
vt 0.980196 0.781056
vt 0.927871 0.769298
vt 0.877759 0.868951
vt 0.918866 0.905516
vt 0.799731 0.989368
vt 0.783123 0.933373
vt 0.670119 0.936847
vt 0.612710 0.835677
vt 0.571689 0.764965
vt 0.569534 0.683918
vt 0.606138 0.611481
vt 0.672937 0.565077
vt 0.756643 0.562294
vt 0.828476 0.603910
vt 0.869964 0.674822
vt 0.872254 0.756464
vt 0.834908 0.829476
vt 0.765922 0.875098
vt 0.684046 0.877500
vt 0.649101 0.797292
vt 0.621335 0.750266
vt 0.619750 0.695776
vt 0.644477 0.647340
vt 0.689573 0.617413
vt 0.744194 0.615625
vt 0.791917 0.642561
vt 0.819934 0.689711
vt 0.821523 0.744487
vt 0.796357 0.793124
vt 0.750548 0.822778
vt 0.696442 0.824329
vt 0.684729 0.758962
vt 0.696442 0.824329
vt 0.649101 0.797292
vt 0.621335 0.750266
vt 0.670605 0.735353
vt 0.619750 0.695776
vt 0.669754 0.707767
vt 0.682347 0.683381
vt 0.644477 0.647340
vt 0.705179 0.668668
vt 0.689573 0.617413
vt 0.744194 0.615625
vt 0.732289 0.667818
vt 0.756165 0.681090
vt 0.791917 0.642561
vt 0.819934 0.689711
vt 0.770375 0.704736
vt 0.771208 0.732405
vt 0.821523 0.744487
vt 0.796357 0.793124
vt 0.758477 0.756832
vt 0.750548 0.822778
vt 0.735517 0.771484
vt 0.708484 0.772266
vt 0.708484 0.772266
vt 0.684729 0.758962
vt 0.720427 0.720065
vt 0.670605 0.735353
vt 0.669754 0.707767
vt 0.682347 0.683381
vt 0.705179 0.668668
vt 0.732289 0.667818
vt 0.756165 0.681090
vt 0.770375 0.704736
vt 0.771208 0.732405
vt 0.758477 0.756832
vt 0.735517 0.771484
vt 0.684729 0.758962
vt 0.735517 0.771484
vt 0.708484 0.772266
vt 0.758477 0.756832
vt 0.771208 0.732405
vt 0.756165 0.681090
vt 0.770375 0.704736
vt 0.705179 0.668668
vt 0.732289 0.667818
vt 0.682347 0.683381
vt 0.669754 0.707767
vt 0.670605 0.735353
vt 0.317653 0.136005
vt 0.453567 0.171891
vt 0.218512 0.592320
vt 0.215043 0.905534
vn 0.6961 0.7179 -0.0047
vn 0.0472 0.9989 0.0023
vn 0.6865 0.7268 -0.0238
vn -0.7059 0.7081 0.0139
vn -0.7111 0.7029 0.0185
vn -0.9997 0.0133 0.0226
vn -0.9944 0.1033 0.0231
vn -0.7134 -0.7005 0.0189
vn -0.7876 -0.6160 0.0162
vn -0.0856 -0.9963 0.0117
vn -0.0101 -0.9999 0.0049
vn 0.6446 -0.7644 -0.0073
vn 0.7037 -0.7103 -0.0174
vn 0.9965 0.0738 -0.0387
vn 0.9999 0.0088 -0.0086
vn 0.2667 0.9153 -0.3018
vn -0.8074 0.5874 0.0557
vn -0.9952 -0.0851 0.0486
vn -0.7407 -0.6707 0.0394
vn -0.3055 -0.9199 -0.2458
vn 0.4388 -0.8718 -0.2177
vn 0.9964 -0.0697 -0.0484
vn 0.6657 0.7437 -0.0604
vn 0.1971 0.9684 -0.1527
vn -0.4779 0.8636 -0.1605
vn -0.9961 0.0599 -0.0647
vn -0.8498 -0.4868 -0.2021
vn -0.2340 -0.9512 -0.2010
vn 0.6876 -0.7229 -0.0681
vn 0.9985 -0.0194 -0.0506
vn 0.4607 0.8606 -0.2171
vn -0.0075 0.9996 -0.0272
vn -0.6844 0.7290 -0.0119
vn -0.9993 0.0359 -0.0062
vn -0.7087 -0.7049 -0.0295
vn -0.0011 -0.9987 -0.0518
vn 0.7067 -0.7050 -0.0597
vn 0.9980 0.0215 -0.0587
vn 0.6898 0.7217 -0.0580
vn 0.6877 0.7227 -0.0691
vn -0.0176 0.9967 -0.0790
vn -0.7070 0.7060 -0.0413
vn -0.9999 0.0139 0.0070
vn -0.7095 -0.7045 0.0179
vn 0.0015 -1.0000 0.0075
vn 0.7070 -0.7071 -0.0137
vn 0.9995 0.0095 -0.0315
vn 0.3055 -0.0494 0.9509
vn 0.1255 0.0892 0.9881
vn 0.3049 0.0026 0.9524
vn 0.0264 0.0000 0.9997
vn 0.0265 -0.1943 0.9806
vn 0.0587 -0.1651 0.9845
vn -0.0123 -0.0419 0.9990
vn 0.0275 -0.0012 0.9996
vn -0.1372 0.0321 0.9900
vn -0.1661 0.0004 0.9861
vn 0.0274 0.2752 0.9610
vn -0.0215 0.2750 0.9612
vn 0.0342 -0.0077 0.9994
vn -0.6789 -0.6988 0.2255
vn 0.0768 -0.9800 0.1837
vn 0.0671 0.0159 0.9976
vn 0.6994 -0.6947 0.1677
vn 0.9863 -0.0400 0.1600
vn 0.7009 0.6903 0.1795
vn -0.0310 0.9819 0.1869
vn -0.6896 0.6947 0.2044
vn -0.9754 0.0617 0.2116
vn 0.0000 -1.0000 -0.0000
vn 0.0534 -0.9970 -0.0563
vn 0.0744 -0.9970 -0.0221
vn 0.0181 -0.9970 -0.0755
vn -0.0221 -0.9970 -0.0745
vn -0.0563 -0.9970 -0.0534
vn -0.0755 -0.9970 -0.0181
vn -0.0744 -0.9970 0.0221
vn -0.0534 -0.9970 0.0563
vn -0.0181 -0.9970 0.0755
vn 0.0221 -0.9970 0.0744
vn 0.0563 -0.9970 0.0534
vn 0.0755 -0.9970 0.0181
vn 0.6828 0.1244 -0.7199
vn 0.8525 0.0000 -0.5227
vn 0.4769 0.0000 -0.8789
vn 0.2314 0.1243 -0.9649
vn -0.2820 0.1243 -0.9513
vn -0.0264 0.0000 -0.9997
vn -0.5227 0.0000 -0.8525
vn -0.7199 0.1242 -0.6828
vn -0.8789 0.0000 -0.4770
vn -0.9649 0.1243 -0.2314
vn -0.9997 0.0000 0.0264
vn -0.9513 0.1243 0.2820
vn -0.8525 -0.0000 0.5227
vn -0.6828 0.1243 0.7199
vn -0.2314 0.1243 0.9649
vn -0.4770 0.0000 0.8789
vn 0.2820 0.1242 0.9513
vn 0.7199 0.1243 0.6828
vn 0.5227 0.0000 0.8525
vn 0.8789 -0.0000 0.4769
vn 0.9649 0.1243 0.2314
vn 0.9997 -0.0000 -0.0264
vn 0.9513 0.1242 -0.2820
vn 0.6185 0.4588 -0.6379
vn 0.2168 0.4589 -0.8616
vn -0.2431 0.4588 -0.8546
vn -0.6437 0.4614 -0.6105
vn -0.8627 0.4615 -0.2069
vn -0.8506 0.4614 0.2522
vn -0.6106 0.4613 0.6437
vn -0.2167 0.4588 0.8617
vn 0.2522 0.4614 0.8506
vn 0.6437 0.4614 0.6105
vn 0.8627 0.4614 0.2069
vn 0.8503 0.4522 -0.2691
vn 0.4271 0.7841 -0.4503
vn 0.1451 0.7828 -0.6051
vn -0.1764 0.7841 -0.5951
vn -0.4508 0.7836 -0.4275
vn -0.6051 0.7828 -0.1451
vn -0.5956 0.7836 0.1766
vn -0.4275 0.7836 0.4508
vn -0.1447 0.7841 0.6036
vn 0.1766 0.7836 0.5956
vn 0.4508 0.7836 0.4275
vn 0.6051 0.7828 0.1451
vn 0.5957 0.7836 -0.1766
vn -0.1275 0.9827 0.1344
vn 0.9231 0.2703 -0.2737
vn 0.6626 0.2703 -0.6985
vn 0.2245 0.2703 -0.9362
vn -0.0432 0.9827 0.1801
vn -0.2737 0.2703 -0.9231
vn 0.0527 0.9827 0.1776
vn 0.1344 0.9827 0.1275
vn -0.6985 0.2703 -0.6626
vn 0.1801 0.9827 0.0432
vn -0.9362 0.2703 -0.2245
vn -0.9231 0.2703 0.2737
vn 0.1776 0.9827 -0.0527
vn 0.1275 0.9827 -0.1344
vn -0.6626 0.2703 0.6985
vn -0.2245 0.2703 0.9362
vn 0.0432 0.9827 -0.1801
vn -0.0527 0.9827 -0.1776
vn 0.2737 0.2703 0.9231
vn 0.6985 0.2703 0.6626
vn -0.1344 0.9827 -0.1275
vn 0.9362 0.2703 0.2245
vn -0.1801 0.9827 -0.0432
vn -0.1776 0.9827 0.0527
vn 0.7657 0.6019 -0.2270
vn 0.5496 0.6019 -0.5794
vn -0.0000 1.0000 0.0000
vn 0.1862 0.6019 -0.7766
vn -0.2270 0.6019 -0.7657
vn -0.5794 0.6019 -0.5496
vn -0.7766 0.6019 -0.1862
vn -0.7657 0.6019 0.2270
vn -0.5496 0.6019 0.5794
vn -0.1862 0.6019 0.7766
vn 0.2270 0.6019 0.7657
vn 0.5794 0.6019 0.5496
vn 0.7766 0.6019 0.1862
vn 0.6099 -0.4633 -0.6430
vn 0.8496 -0.4633 -0.2519
vn 0.2067 -0.4633 -0.8617
vn -0.2519 -0.4633 -0.8496
vn -0.8617 -0.4633 -0.2067
vn -0.6430 -0.4633 -0.6099
vn -0.8496 -0.4633 0.2519
vn -0.6099 -0.4633 0.6430
vn -0.2067 -0.4633 0.8617
vn 0.2519 -0.4633 0.8496
vn 0.6430 -0.4633 0.6098
vn 0.8618 -0.4633 0.2067
vn 0.0533 0.9970 -0.0562
vn 0.0754 0.9970 0.0181
vn 0.0743 0.9970 -0.0220
vn 0.0562 0.9970 0.0533
vn 0.0220 0.9970 0.0743
vn -0.0533 0.9970 0.0562
vn -0.0181 0.9970 0.0754
vn -0.0754 0.9970 -0.0181
vn -0.0743 0.9970 0.0220
vn -0.0563 0.9970 -0.0533
vn -0.0220 0.9970 -0.0743
vn 0.0181 0.9970 -0.0754
vn 0.0000 1.0000 -0.0059
s 1
f 1/1/1 2/2/2 3/3/3
f 2/2/2 4/4/4 5/5/5
f 5/5/5 6/6/6 7/7/7
f 7/7/7 8/8/8 9/9/9
f 8/8/8 10/10/10 9/9/9
f 11/11/11 12/12/12 10/13/10
f 13/14/13 14/15/14 12/12/12
f 15/16/15 3/3/3 14/15/14
f 16/17/16 3/3/3 2/2/2
f 16/17/16 5/5/5 17/18/17
f 17/18/17 7/7/7 18/19/18
f 18/19/18 9/9/9 19/20/19
f 20/21/20 9/9/9 10/10/10
f 21/22/21 10/13/10 12/12/12
f 21/22/21 14/15/14 22/23/22
f 23/24/23 14/15/14 3/3/3
f 24/25/24 23/24/23 16/17/16
f 25/26/25 16/17/16 17/18/17
f 25/26/25 18/19/18 26/27/26
f 27/28/27 18/19/18 19/20/19
f 28/29/28 19/20/19 20/21/20
f 28/30/28 21/22/21 29/31/29
f 29/31/29 22/23/22 30/32/30
f 30/32/30 23/24/23 31/33/31
f 32/34/32 31/33/31 24/25/24
f 32/34/32 25/26/25 33/35/33
f 33/35/33 26/27/26 34/36/34
f 34/36/34 27/28/27 35/37/35
f 35/37/35 28/29/28 36/38/36
f 37/39/37 28/30/28 29/31/29
f 38/40/38 29/31/29 30/32/30
f 39/41/39 30/32/30 31/33/31
f 40/42/40 32/34/32 41/43/41
f 42/44/42 32/34/32 33/35/33
f 43/45/43 33/35/33 34/36/34
f 44/46/44 34/36/34 35/37/35
f 44/46/44 36/38/36 45/47/45
f 45/48/45 37/39/37 46/49/46
f 47/50/47 37/39/37 38/40/38
f 40/42/40 38/40/38 39/41/39
f 48/51/48 40/42/49 41/43/50
f 48/51/48 42/44/51 49/52/51
f 50/53/52 42/44/51 43/45/53
f 51/54/54 43/45/53 44/46/55
f 51/54/54 45/47/56 52/55/57
f 52/56/57 46/49/51 53/57/51
f 53/57/51 47/50/58 54/58/59
f 54/58/59 40/42/49 55/59/60
f 55/60/61 48/61/62 56/62/63
f 48/61/62 49/63/64 56/62/63
f 49/63/64 50/64/65 56/62/63
f 50/64/65 51/65/66 56/62/63
f 51/65/66 52/66/67 56/62/63
f 52/66/67 53/67/68 56/62/63
f 53/68/68 54/69/69 56/62/63
f 54/69/69 55/60/61 56/62/63
f 57/70/70 58/71/71 59/72/72
f 57/70/70 60/73/73 58/71/71
f 57/70/70 61/74/74 60/73/73
f 57/70/70 62/75/75 61/74/74
f 57/70/70 63/76/76 62/75/75
f 57/70/70 64/77/77 63/76/76
f 57/70/70 65/78/78 64/77/77
f 57/70/70 66/79/79 65/78/78
f 57/70/70 67/80/80 66/79/79
f 57/70/70 68/81/81 67/80/80
f 57/70/70 69/82/82 68/81/81
f 57/70/70 59/72/72 69/82/82
f 70/83/83 59/84/84 58/85/84
f 70/83/83 60/86/85 71/87/86
f 72/88/87 60/86/88 61/89/88
f 72/88/87 62/90/89 73/91/90
f 73/91/90 63/92/91 74/93/92
f 74/93/92 64/94/93 75/95/94
f 75/95/94 65/96/95 76/97/96
f 77/98/97 65/96/98 66/99/98
f 77/98/97 67/100/51 78/101/99
f 79/102/100 67/100/101 68/103/101
f 79/102/100 69/104/102 80/105/103
f 80/105/103 59/84/104 81/106/105
f 82/107/106 81/106/105 70/83/83
f 83/108/107 70/83/83 71/87/86
f 84/109/108 71/87/86 72/88/87
f 84/109/108 73/91/90 85/110/109
f 85/110/109 74/93/92 86/111/110
f 86/111/110 75/95/94 87/112/111
f 87/112/111 76/97/96 88/113/112
f 89/114/113 76/97/96 77/98/97
f 89/114/113 78/101/99 90/115/114
f 90/115/114 79/102/100 91/116/115
f 91/116/115 80/105/103 92/117/116
f 93/118/117 80/105/103 81/106/105
f 94/119/118 93/118/117 82/107/106
f 94/119/118 83/108/107 95/120/119
f 96/121/120 83/108/107 84/109/108
f 96/121/120 85/110/109 97/122/121
f 97/122/121 86/111/110 98/123/122
f 99/124/123 86/111/110 87/112/111
f 100/125/124 87/112/111 88/113/112
f 101/126/125 88/113/112 89/114/113
f 101/126/125 90/115/114 102/127/126
f 102/127/126 91/116/115 103/128/127
f 103/128/127 92/117/116 104/129/128
f 105/130/129 92/117/116 93/118/117
f 106/131/130 107/132/131 108/133/132
f 106/131/130 109/134/133 110/135/134
f 110/135/134 111/136/135 112/137/136
f 113/138/137 111/136/135 114/139/138
f 115/140/139 114/139/138 116/141/140
f 115/140/139 117/142/141 118/143/142
f 119/144/143 117/142/141 120/145/144
f 119/144/143 121/146/145 122/147/146
f 123/148/147 121/146/145 124/149/148
f 123/148/147 125/150/149 126/151/150
f 126/151/150 127/152/151 128/153/152
f 129/154/153 127/152/151 107/132/131
f 130/155/154 131/156/155 132/157/156
f 131/156/155 133/158/157 132/157/156
f 133/158/157 134/159/158 132/157/156
f 134/159/158 135/160/159 132/157/156
f 135/160/159 136/161/160 132/157/156
f 136/161/160 137/162/161 132/157/156
f 137/162/161 138/163/162 132/157/156
f 138/163/162 139/164/163 132/157/156
f 139/164/163 140/165/164 132/157/156
f 140/165/164 141/166/165 132/157/156
f 141/166/165 142/167/166 132/157/156
f 142/167/166 130/155/154 132/157/156
f 94/119/167 107/132/131 105/130/168
f 95/120/169 108/133/132 94/119/167
f 96/121/170 109/134/133 95/120/169
f 96/121/170 114/139/138 111/136/135
f 98/123/171 114/139/138 97/122/172
f 99/124/173 116/141/140 98/123/171
f 100/125/174 117/142/141 99/124/173
f 101/126/175 120/145/144 100/125/174
f 102/127/176 121/146/145 101/126/175
f 103/128/177 124/149/148 102/127/176
f 103/128/177 127/152/151 125/150/149
f 104/129/178 107/132/131 127/152/151
f 143/168/179 129/154/153 106/131/130
f 144/169/180 129/154/153 145/170/181
f 144/169/180 126/151/150 128/153/152
f 146/171/182 123/148/147 126/151/150
f 147/172/183 122/147/146 123/148/147
f 148/173/184 122/147/146 149/174/185
f 148/173/184 118/143/142 119/144/143
f 150/175/186 118/143/142 151/176/187
f 152/177/188 115/140/139 150/175/186
f 152/177/188 112/137/136 113/138/137
f 153/178/189 110/135/134 112/137/136
f 143/168/179 110/135/134 154/179/190
f 143/168/179 130/155/154 145/170/181
f 143/168/179 133/158/157 131/156/155
f 153/178/189 133/158/157 154/179/190
f 152/177/188 134/159/158 153/178/189
f 152/177/188 136/161/160 135/160/159
f 151/176/187 136/161/160 150/175/186
f 148/173/184 137/162/161 151/176/187
f 148/173/184 139/164/163 138/163/162
f 147/172/183 139/164/163 149/174/185
f 147/172/183 141/166/165 140/165/164
f 144/169/180 141/166/165 146/171/182
f 145/170/181 142/167/166 144/169/180
f 1/1/1 155/180/191 2/2/2
f 2/2/2 155/180/191 4/4/4
f 5/5/5 4/4/4 6/6/6
f 7/7/7 6/6/6 8/8/8
f 8/8/8 11/181/11 10/10/10
f 11/11/11 13/14/13 12/12/12
f 13/14/13 15/16/15 14/15/14
f 15/16/15 1/1/1 3/3/3
f 16/17/16 23/24/23 3/3/3
f 16/17/16 2/2/2 5/5/5
f 17/18/17 5/5/5 7/7/7
f 18/19/18 7/7/7 9/9/9
f 20/21/20 19/20/19 9/9/9
f 21/22/21 20/182/20 10/13/10
f 21/22/21 12/12/12 14/15/14
f 23/24/23 22/23/22 14/15/14
f 24/25/24 31/33/31 23/24/23
f 25/26/25 24/25/24 16/17/16
f 25/26/25 17/18/17 18/19/18
f 27/28/27 26/27/26 18/19/18
f 28/29/28 27/28/27 19/20/19
f 28/30/28 20/182/20 21/22/21
f 29/31/29 21/22/21 22/23/22
f 30/32/30 22/23/22 23/24/23
f 32/34/32 39/41/39 31/33/31
f 32/34/32 24/25/24 25/26/25
f 33/35/33 25/26/25 26/27/26
f 34/36/34 26/27/26 27/28/27
f 35/37/35 27/28/27 28/29/28
f 37/39/37 36/183/36 28/30/28
f 38/40/38 37/39/37 29/31/29
f 39/41/39 38/40/38 30/32/30
f 40/42/40 39/41/39 32/34/32
f 42/44/42 41/43/41 32/34/32
f 43/45/43 42/44/42 33/35/33
f 44/46/44 43/45/43 34/36/34
f 44/46/44 35/37/35 36/38/36
f 45/48/45 36/183/36 37/39/37
f 47/50/47 46/49/46 37/39/37
f 40/42/40 47/50/47 38/40/38
f 48/51/48 55/59/60 40/42/49
f 48/51/48 41/43/50 42/44/51
f 50/53/52 49/52/51 42/44/51
f 51/54/54 50/53/52 43/45/53
f 51/54/54 44/46/55 45/47/56
f 52/56/57 45/48/56 46/49/51
f 53/57/51 46/49/51 47/50/58
f 54/58/59 47/50/58 40/42/49
f 70/83/83 81/106/105 59/84/84
f 70/83/83 58/85/85 60/86/85
f 72/88/87 71/87/86 60/86/88
f 72/88/87 61/89/89 62/90/89
f 73/91/90 62/90/91 63/92/91
f 74/93/92 63/92/93 64/94/93
f 75/95/94 64/94/95 65/96/95
f 77/98/97 76/97/96 65/96/98
f 77/98/97 66/99/51 67/100/51
f 79/102/100 78/101/99 67/100/101
f 79/102/100 68/103/102 69/104/102
f 80/105/103 69/104/104 59/84/104
f 82/107/106 93/118/117 81/106/105
f 83/108/107 82/107/106 70/83/83
f 84/109/108 83/108/107 71/87/86
f 84/109/108 72/88/87 73/91/90
f 85/110/109 73/91/90 74/93/92
f 86/111/110 74/93/92 75/95/94
f 87/112/111 75/95/94 76/97/96
f 89/114/113 88/113/112 76/97/96
f 89/114/113 77/98/97 78/101/99
f 90/115/114 78/101/99 79/102/100
f 91/116/115 79/102/100 80/105/103
f 93/118/117 92/117/116 80/105/103
f 94/119/118 105/130/129 93/118/117
f 94/119/118 82/107/106 83/108/107
f 96/121/120 95/120/119 83/108/107
f 96/121/120 84/109/108 85/110/109
f 97/122/121 85/110/109 86/111/110
f 99/124/123 98/123/122 86/111/110
f 100/125/124 99/124/123 87/112/111
f 101/126/125 100/125/124 88/113/112
f 101/126/125 89/114/113 90/115/114
f 102/127/126 90/115/114 91/116/115
f 103/128/127 91/116/115 92/117/116
f 105/130/129 104/129/128 92/117/116
f 106/131/130 129/154/153 107/132/131
f 106/131/130 108/133/132 109/134/133
f 110/135/134 109/134/133 111/136/135
f 113/138/137 112/137/136 111/136/135
f 115/140/139 113/138/137 114/139/138
f 115/140/139 116/141/140 117/142/141
f 119/144/143 118/143/142 117/142/141
f 119/144/143 120/145/144 121/146/145
f 123/148/147 122/147/146 121/146/145
f 123/148/147 124/149/148 125/150/149
f 126/151/150 125/150/149 127/152/151
f 129/154/153 128/153/152 127/152/151
f 94/119/167 108/133/132 107/132/131
f 95/120/169 109/134/133 108/133/132
f 96/121/170 111/136/135 109/134/133
f 96/121/170 97/122/172 114/139/138
f 98/123/171 116/141/140 114/139/138
f 99/124/173 117/142/141 116/141/140
f 100/125/174 120/145/144 117/142/141
f 101/126/175 121/146/145 120/145/144
f 102/127/176 124/149/148 121/146/145
f 103/128/177 125/150/149 124/149/148
f 103/128/177 104/129/178 127/152/151
f 104/129/178 105/130/168 107/132/131
f 143/168/179 145/170/181 129/154/153
f 144/169/180 128/153/152 129/154/153
f 144/169/180 146/171/182 126/151/150
f 146/171/182 147/172/183 123/148/147
f 147/172/183 149/174/185 122/147/146
f 148/173/184 119/144/143 122/147/146
f 148/173/184 151/176/187 118/143/142
f 150/175/186 115/140/139 118/143/142
f 152/177/188 113/138/137 115/140/139
f 152/177/188 153/178/189 112/137/136
f 153/178/189 154/179/190 110/135/134
f 143/168/179 106/131/130 110/135/134
f 143/168/179 131/156/155 130/155/154
f 143/168/179 154/179/190 133/158/157
f 153/178/189 134/159/158 133/158/157
f 152/177/188 135/160/159 134/159/158
f 152/177/188 150/175/186 136/161/160
f 151/176/187 137/162/161 136/161/160
f 148/173/184 138/163/162 137/162/161
f 148/173/184 149/174/185 139/164/163
f 147/172/183 140/165/164 139/164/163
f 147/172/183 146/171/182 141/166/165
f 144/169/180 142/167/166 141/166/165
f 145/170/181 130/155/154 142/167/166
